<svg width="548" height="511" viewBox="0 0 548 511" fill="none" xmlns="http://www.w3.org/2000/svg">
<g filter="url(#filter0_d_509_2285)">
<rect x="7" y="6" width="534" height="497" rx="24" fill="white"/>
</g>
<mask id="mask0_509_2285" style="mask-type:alpha" maskUnits="userSpaceOnUse" x="31" y="30" width="24" height="24">
<rect x="31" y="30" width="24" height="24" fill="#D9D9D9"/>
</mask>
<g mask="url(#mask0_509_2285)">
<path d="M34 49C33.45 49 32.9792 48.8042 32.5875 48.4125C32.1958 48.0208 32 47.55 32 47V37C32 36.45 32.1958 35.9792 32.5875 35.5875C32.9792 35.1958 33.45 35 34 35H44C44.55 35 45.0208 35.1958 45.4125 35.5875C45.8042 35.9792 46 36.45 46 37V47C46 47.55 45.8042 48.0208 45.4125 48.4125C45.0208 48.8042 44.55 49 44 49H34ZM34 45.35C34.7333 44.9167 35.5167 44.5833 36.35 44.35C37.1833 44.1167 38.0667 44 39 44C39.9333 44 40.8167 44.1167 41.65 44.35C42.4833 44.5833 43.2667 44.9167 44 45.35V37H34V45.35ZM39 46C38.3167 46 37.65 46.0833 37 46.25C36.35 46.4167 35.7333 46.6667 35.15 47H42.85C42.2667 46.6667 41.65 46.4167 41 46.25C40.35 46.0833 39.6833 46 39 46ZM39 43.25C38.25 43.25 37.6042 42.9792 37.0625 42.4375C36.5208 41.8958 36.25 41.25 36.25 40.5C36.25 39.75 36.5208 39.1042 37.0625 38.5625C37.6042 38.0208 38.25 37.75 39 37.75C39.75 37.75 40.3958 38.0208 40.9375 38.5625C41.4792 39.1042 41.75 39.75 41.75 40.5C41.75 41.25 41.4792 41.8958 40.9375 42.4375C40.3958 42.9792 39.75 43.25 39 43.25ZM39 41.4C39.25 41.4 39.4625 41.3125 39.6375 41.1375C39.8125 40.9625 39.9 40.75 39.9 40.5C39.9 40.25 39.8125 40.0375 39.6375 39.8625C39.4625 39.6875 39.25 39.6 39 39.6C38.75 39.6 38.5375 39.6875 38.3625 39.8625C38.1875 40.0375 38.1 40.25 38.1 40.5C38.1 40.75 38.1875 40.9625 38.3625 41.1375C38.5375 41.3125 38.75 41.4 39 41.4ZM48 49V35H50V49H48ZM52 49V35H54V49H52Z" fill="#646464"/>
</g>
<path d="M65.642 48H63.392L67.4886 36.3636H70.0909L74.1932 48H71.9432L68.8352 38.75H68.7443L65.642 48ZM65.7159 43.4375H71.8523V45.1307H65.7159V43.4375ZM81.1974 44.3295V39.2727H83.2543V48H81.2599V46.4489H81.169C80.9721 46.9375 80.6482 47.3371 80.1974 47.6477C79.7505 47.9583 79.1993 48.1136 78.544 48.1136C77.9721 48.1136 77.4664 47.9867 77.027 47.733C76.5914 47.4754 76.2505 47.1023 76.0043 46.6136C75.758 46.1212 75.6349 45.5265 75.6349 44.8295V39.2727H77.6918V44.5114C77.6918 45.0644 77.8433 45.5038 78.1463 45.8295C78.4493 46.1553 78.8471 46.3182 79.3395 46.3182C79.6425 46.3182 79.9361 46.2443 80.2202 46.0966C80.5043 45.9489 80.7372 45.7292 80.919 45.4375C81.1046 45.142 81.1974 44.7727 81.1974 44.3295ZM88.608 48.1534C87.9223 48.1534 87.3087 47.9773 86.767 47.625C86.2254 47.2727 85.7973 46.7614 85.483 46.0909C85.1686 45.4205 85.0114 44.6061 85.0114 43.6477C85.0114 42.678 85.1705 41.8598 85.4886 41.1932C85.8106 40.5227 86.2443 40.017 86.7898 39.6761C87.3352 39.3314 87.9432 39.1591 88.6136 39.1591C89.125 39.1591 89.5455 39.2462 89.875 39.4205C90.2045 39.5909 90.4659 39.7973 90.6591 40.0398C90.8523 40.2784 91.0019 40.5038 91.108 40.7159H91.1932V36.3636H93.2557V48H91.233V46.625H91.108C91.0019 46.8371 90.8485 47.0625 90.6477 47.3011C90.447 47.536 90.1818 47.7367 89.8523 47.9034C89.5227 48.0701 89.108 48.1534 88.608 48.1534ZM89.1818 46.4659C89.6174 46.4659 89.9886 46.3485 90.2955 46.1136C90.6023 45.875 90.8352 45.5436 90.9943 45.1193C91.1534 44.6951 91.233 44.2008 91.233 43.6364C91.233 43.072 91.1534 42.5814 90.9943 42.1648C90.839 41.7481 90.608 41.4242 90.3011 41.1932C89.9981 40.9621 89.625 40.8466 89.1818 40.8466C88.7235 40.8466 88.3409 40.9659 88.0341 41.2045C87.7273 41.4432 87.4962 41.7727 87.3409 42.1932C87.1856 42.6136 87.108 43.0947 87.108 43.6364C87.108 44.1818 87.1856 44.6686 87.3409 45.0966C87.5 45.5208 87.733 45.8561 88.0398 46.1023C88.3504 46.3447 88.7311 46.4659 89.1818 46.4659ZM95.4474 48V39.2727H97.5043V48H95.4474ZM96.4815 38.0341C96.1558 38.0341 95.8755 37.9261 95.6406 37.7102C95.4058 37.4905 95.2884 37.2273 95.2884 36.9205C95.2884 36.6098 95.4058 36.3466 95.6406 36.1307C95.8755 35.911 96.1558 35.8011 96.4815 35.8011C96.8111 35.8011 97.0914 35.911 97.3224 36.1307C97.5573 36.3466 97.6747 36.6098 97.6747 36.9205C97.6747 37.2273 97.5573 37.4905 97.3224 37.7102C97.0914 37.9261 96.8111 38.0341 96.4815 38.0341ZM103.483 48.1705C102.608 48.1705 101.852 47.9886 101.216 47.625C100.583 47.2576 100.097 46.7386 99.7557 46.0682C99.4148 45.3939 99.2443 44.6004 99.2443 43.6875C99.2443 42.7898 99.4148 42.0019 99.7557 41.3239C100.1 40.642 100.581 40.1117 101.199 39.733C101.816 39.3504 102.542 39.1591 103.375 39.1591C103.913 39.1591 104.42 39.2462 104.898 39.4205C105.379 39.5909 105.803 39.8561 106.17 40.2159C106.542 40.5758 106.833 41.0341 107.045 41.5909C107.258 42.1439 107.364 42.803 107.364 43.5682V44.1989H100.21V42.8125H105.392C105.388 42.4186 105.303 42.0682 105.136 41.7614C104.97 41.4508 104.737 41.2064 104.438 41.0284C104.142 40.8504 103.797 40.7614 103.403 40.7614C102.983 40.7614 102.614 40.8636 102.295 41.0682C101.977 41.2689 101.729 41.5341 101.551 41.8636C101.377 42.1894 101.288 42.5473 101.284 42.9375V44.1477C101.284 44.6553 101.377 45.0909 101.562 45.4545C101.748 45.8144 102.008 46.0909 102.341 46.2841C102.674 46.4735 103.064 46.5682 103.511 46.5682C103.811 46.5682 104.081 46.5265 104.324 46.4432C104.566 46.3561 104.777 46.2292 104.955 46.0625C105.133 45.8958 105.267 45.6894 105.358 45.4432L107.278 45.6591C107.157 46.1667 106.926 46.6098 106.585 46.9886C106.248 47.3636 105.816 47.6553 105.29 47.8636C104.763 48.0682 104.161 48.1705 103.483 48.1705ZM111.161 42.8864V48H109.104V39.2727H111.07V40.7557H111.172C111.373 40.267 111.693 39.8788 112.132 39.5909C112.575 39.303 113.123 39.1591 113.774 39.1591C114.376 39.1591 114.901 39.2879 115.348 39.5455C115.799 39.803 116.147 40.1761 116.393 40.6648C116.643 41.1534 116.767 41.7462 116.763 42.4432V48H114.706V42.7614C114.706 42.178 114.554 41.7216 114.251 41.392C113.952 41.0625 113.537 40.8977 113.007 40.8977C112.647 40.8977 112.327 40.9773 112.047 41.1364C111.77 41.2917 111.553 41.517 111.393 41.8125C111.238 42.108 111.161 42.4659 111.161 42.8864ZM122.661 48.1705C121.789 48.1705 121.041 47.9792 120.416 47.5966C119.795 47.214 119.316 46.6856 118.979 46.0114C118.645 45.3333 118.479 44.553 118.479 43.6705C118.479 42.7841 118.649 42.0019 118.99 41.3239C119.331 40.642 119.812 40.1117 120.433 39.733C121.058 39.3504 121.797 39.1591 122.649 39.1591C123.357 39.1591 123.984 39.2898 124.53 39.5511C125.079 39.8087 125.517 40.1742 125.842 40.6477C126.168 41.1174 126.354 41.6667 126.399 42.2955H124.433C124.354 41.875 124.164 41.5246 123.865 41.2443C123.57 40.9602 123.174 40.8182 122.678 40.8182C122.257 40.8182 121.888 40.9318 121.57 41.1591C121.251 41.3826 121.003 41.7045 120.825 42.125C120.651 42.5455 120.564 43.0492 120.564 43.6364C120.564 44.2311 120.651 44.7424 120.825 45.1705C121 45.5947 121.244 45.9223 121.558 46.1534C121.876 46.3807 122.25 46.4943 122.678 46.4943C122.981 46.4943 123.251 46.4375 123.49 46.3239C123.732 46.2064 123.935 46.0379 124.098 45.8182C124.261 45.5985 124.373 45.3314 124.433 45.017H126.399C126.35 45.6345 126.168 46.1818 125.854 46.6591C125.539 47.1326 125.111 47.5038 124.57 47.7727C124.028 48.0379 123.392 48.1705 122.661 48.1705ZM131.952 48.1705C131.077 48.1705 130.321 47.9886 129.685 47.625C129.052 47.2576 128.565 46.7386 128.224 46.0682C127.884 45.3939 127.713 44.6004 127.713 43.6875C127.713 42.7898 127.884 42.0019 128.224 41.3239C128.569 40.642 129.05 40.1117 129.668 39.733C130.285 39.3504 131.01 39.1591 131.844 39.1591C132.382 39.1591 132.889 39.2462 133.366 39.4205C133.848 39.5909 134.272 39.8561 134.639 40.2159C135.01 40.5758 135.302 41.0341 135.514 41.5909C135.726 42.1439 135.832 42.803 135.832 43.5682V44.1989H128.679V42.8125H133.861C133.857 42.4186 133.772 42.0682 133.605 41.7614C133.438 41.4508 133.205 41.2064 132.906 41.0284C132.611 40.8504 132.266 40.7614 131.872 40.7614C131.452 40.7614 131.082 40.8636 130.764 41.0682C130.446 41.2689 130.198 41.5341 130.02 41.8636C129.846 42.1894 129.757 42.5473 129.753 42.9375V44.1477C129.753 44.6553 129.846 45.0909 130.031 45.4545C130.217 45.8144 130.476 46.0909 130.81 46.2841C131.143 46.4735 131.533 46.5682 131.98 46.5682C132.279 46.5682 132.55 46.5265 132.793 46.4432C133.035 46.3561 133.245 46.2292 133.423 46.0625C133.601 45.8958 133.736 45.6894 133.827 45.4432L135.747 45.6591C135.626 46.1667 135.395 46.6098 135.054 46.9886C134.717 47.3636 134.285 47.6553 133.759 47.8636C133.232 48.0682 132.63 48.1705 131.952 48.1705ZM143.126 48H140.876L144.973 36.3636H147.575L151.678 48H149.428L146.32 38.75H146.229L143.126 48ZM143.2 43.4375H149.337V45.1307H143.2V43.4375ZM156.93 39.2727V40.8636H151.913V39.2727H156.93ZM153.152 37.1818H155.209V45.375C155.209 45.6515 155.25 45.8636 155.334 46.0114C155.421 46.1553 155.535 46.2538 155.675 46.3068C155.815 46.3598 155.97 46.3864 156.141 46.3864C156.269 46.3864 156.387 46.3769 156.493 46.358C156.603 46.339 156.686 46.322 156.743 46.3068L157.089 47.9148C156.98 47.9527 156.822 47.9943 156.618 48.0398C156.417 48.0852 156.171 48.1117 155.879 48.1193C155.364 48.1345 154.9 48.0568 154.487 47.8864C154.074 47.7121 153.747 47.4432 153.504 47.0795C153.266 46.7159 153.148 46.2614 153.152 45.7159V37.1818ZM160.895 36.3636V48H158.838V36.3636H160.895ZM165.521 48.1761C164.968 48.1761 164.47 48.0777 164.027 47.8807C163.588 47.6799 163.239 47.3845 162.982 46.9943C162.728 46.6042 162.601 46.1231 162.601 45.5511C162.601 45.0587 162.692 44.6515 162.874 44.3295C163.055 44.0076 163.304 43.75 163.618 43.5568C163.932 43.3636 164.286 43.2178 164.68 43.1193C165.078 43.017 165.489 42.9432 165.913 42.8977C166.425 42.8447 166.839 42.7973 167.158 42.7557C167.476 42.7102 167.707 42.642 167.851 42.5511C167.999 42.4564 168.072 42.3106 168.072 42.1136V42.0795C168.072 41.6515 167.946 41.3201 167.692 41.0852C167.438 40.8504 167.072 40.733 166.595 40.733C166.091 40.733 165.692 40.8428 165.396 41.0625C165.105 41.2822 164.908 41.5417 164.805 41.8409L162.885 41.5682C163.036 41.0379 163.286 40.5947 163.635 40.2386C163.983 39.8788 164.41 39.6098 164.913 39.4318C165.417 39.25 165.974 39.1591 166.584 39.1591C167.004 39.1591 167.423 39.2083 167.839 39.3068C168.256 39.4053 168.637 39.5682 168.982 39.7955C169.326 40.0189 169.603 40.3239 169.811 40.7102C170.023 41.0966 170.129 41.5795 170.129 42.1591V48H168.152V46.8011H168.084C167.959 47.0436 167.783 47.2708 167.555 47.483C167.332 47.6913 167.05 47.8598 166.709 47.9886C166.372 48.1136 165.976 48.1761 165.521 48.1761ZM166.055 46.6648C166.468 46.6648 166.826 46.5833 167.129 46.4205C167.432 46.2538 167.665 46.0341 167.828 45.7614C167.995 45.4886 168.078 45.1913 168.078 44.8693V43.8409C168.014 43.8939 167.904 43.9432 167.749 43.9886C167.597 44.0341 167.427 44.0739 167.237 44.108C167.048 44.142 166.86 44.1723 166.675 44.1989C166.489 44.2254 166.328 44.2481 166.192 44.267C165.885 44.3087 165.61 44.3769 165.368 44.4716C165.125 44.5663 164.934 44.6989 164.794 44.8693C164.654 45.036 164.584 45.2519 164.584 45.517C164.584 45.8958 164.722 46.1818 164.999 46.375C165.275 46.5682 165.627 46.6648 166.055 46.6648ZM179.095 41.5795L177.22 41.7841C177.167 41.5947 177.074 41.4167 176.942 41.25C176.813 41.0833 176.639 40.9489 176.419 40.8466C176.199 40.7443 175.93 40.6932 175.612 40.6932C175.184 40.6932 174.824 40.786 174.533 40.9716C174.245 41.1572 174.103 41.3977 174.107 41.6932C174.103 41.947 174.196 42.1534 174.385 42.3125C174.578 42.4716 174.896 42.6023 175.339 42.7045L176.828 43.0227C177.654 43.2008 178.268 43.483 178.669 43.8693C179.074 44.2557 179.279 44.7614 179.283 45.3864C179.279 45.9356 179.118 46.4205 178.8 46.8409C178.485 47.2576 178.048 47.5833 177.487 47.8182C176.927 48.053 176.283 48.1705 175.555 48.1705C174.487 48.1705 173.627 47.947 172.976 47.5C172.324 47.0492 171.936 46.4223 171.811 45.6193L173.817 45.4261C173.908 45.8201 174.101 46.1174 174.396 46.3182C174.692 46.5189 175.076 46.6193 175.55 46.6193C176.038 46.6193 176.43 46.5189 176.726 46.3182C177.025 46.1174 177.175 45.8693 177.175 45.5739C177.175 45.3239 177.078 45.1174 176.885 44.9545C176.696 44.7917 176.4 44.6667 175.999 44.5795L174.51 44.267C173.673 44.0928 173.054 43.7992 172.652 43.3864C172.25 42.9697 172.052 42.4432 172.055 41.8068C172.052 41.2689 172.197 40.803 172.493 40.4091C172.792 40.0114 173.207 39.7045 173.737 39.4886C174.271 39.2689 174.887 39.1591 175.584 39.1591C176.607 39.1591 177.411 39.3769 177.999 39.8125C178.589 40.2481 178.955 40.8371 179.095 41.5795Z" fill="#646464"/>
<path d="M36.2955 105.159C35.7386 105.155 35.1951 105.059 34.6648 104.869C34.1345 104.676 33.6572 104.364 33.233 103.932C32.8087 103.496 32.4716 102.919 32.2216 102.199C31.9716 101.475 31.8485 100.58 31.8523 99.5114C31.8523 98.5152 31.9583 97.6269 32.1705 96.8466C32.3826 96.0663 32.6875 95.4072 33.0852 94.8693C33.483 94.3277 33.9621 93.9148 34.5227 93.6307C35.0871 93.3466 35.7178 93.2045 36.4148 93.2045C37.1458 93.2045 37.7936 93.3485 38.358 93.6364C38.9261 93.9242 39.3845 94.3182 39.733 94.8182C40.0814 95.3144 40.2973 95.875 40.3807 96.5H38.3068C38.2008 96.053 37.983 95.697 37.6534 95.4318C37.3277 95.1629 36.9148 95.0284 36.4148 95.0284C35.608 95.0284 34.9867 95.3788 34.5511 96.0795C34.1193 96.7803 33.9015 97.7424 33.8977 98.9659H33.9773C34.1629 98.6326 34.4034 98.3466 34.6989 98.108C34.9943 97.8693 35.3277 97.6856 35.6989 97.5568C36.0739 97.4242 36.4697 97.358 36.8864 97.358C37.5682 97.358 38.1799 97.5208 38.7216 97.8466C39.267 98.1723 39.6989 98.6212 40.017 99.1932C40.3352 99.7614 40.4924 100.413 40.4886 101.148C40.4924 101.913 40.3182 102.6 39.9659 103.21C39.6136 103.816 39.1231 104.294 38.4943 104.642C37.8655 104.991 37.1326 105.163 36.2955 105.159ZM36.2841 103.455C36.697 103.455 37.0663 103.354 37.392 103.153C37.7178 102.953 37.9754 102.682 38.1648 102.341C38.3542 102 38.447 101.617 38.4432 101.193C38.447 100.777 38.3561 100.4 38.1705 100.062C37.9886 99.7254 37.7367 99.4583 37.4148 99.2614C37.0928 99.0644 36.7254 98.9659 36.3125 98.9659C36.0057 98.9659 35.7197 99.0246 35.4545 99.142C35.1894 99.2595 34.9583 99.4223 34.7614 99.6307C34.5644 99.8352 34.4091 100.074 34.2955 100.347C34.1856 100.616 34.1288 100.903 34.125 101.21C34.1288 101.616 34.2235 101.989 34.4091 102.33C34.5947 102.67 34.8504 102.943 35.1761 103.148C35.5019 103.352 35.8712 103.455 36.2841 103.455ZM46.7102 105.222C45.7746 105.222 44.9716 104.985 44.3011 104.511C43.6345 104.034 43.1212 103.347 42.7614 102.449C42.4053 101.547 42.2273 100.462 42.2273 99.1932C42.2311 97.9242 42.411 96.8447 42.767 95.9545C43.1269 95.0606 43.6402 94.3788 44.3068 93.9091C44.9773 93.4394 45.7784 93.2045 46.7102 93.2045C47.642 93.2045 48.4432 93.4394 49.1136 93.9091C49.7841 94.3788 50.2973 95.0606 50.6534 95.9545C51.0133 96.8485 51.1932 97.928 51.1932 99.1932C51.1932 100.466 51.0133 101.553 50.6534 102.455C50.2973 103.352 49.7841 104.038 49.1136 104.511C48.447 104.985 47.6458 105.222 46.7102 105.222ZM46.7102 103.443C47.4375 103.443 48.0114 103.085 48.4318 102.369C48.8561 101.65 49.0682 100.591 49.0682 99.1932C49.0682 98.2689 48.9716 97.4924 48.7784 96.8636C48.5852 96.2348 48.3125 95.7614 47.9602 95.4432C47.608 95.1212 47.1913 94.9602 46.7102 94.9602C45.9867 94.9602 45.4148 95.3201 44.9943 96.0398C44.5739 96.7557 44.3617 97.8068 44.358 99.1932C44.3542 100.121 44.447 100.902 44.6364 101.534C44.8295 102.167 45.1023 102.644 45.4545 102.966C45.8068 103.284 46.2254 103.443 46.7102 103.443ZM59.3026 102.818V102.205C59.3026 101.754 59.3973 101.339 59.5866 100.96C59.7798 100.581 60.0601 100.277 60.4276 100.045C60.795 99.8144 61.2401 99.6989 61.7628 99.6989C62.3007 99.6989 62.7514 99.8144 63.1151 100.045C63.4787 100.273 63.7533 100.576 63.9389 100.955C64.1283 101.333 64.223 101.75 64.223 102.205V102.818C64.223 103.269 64.1283 103.684 63.9389 104.062C63.7495 104.441 63.4711 104.746 63.1037 104.977C62.7401 105.208 62.2931 105.324 61.7628 105.324C61.2325 105.324 60.7836 105.208 60.4162 104.977C60.0488 104.746 59.7704 104.441 59.581 104.062C59.3954 103.684 59.3026 103.269 59.3026 102.818ZM60.7855 102.205V102.818C60.7855 103.117 60.8575 103.392 61.0014 103.642C61.1454 103.892 61.3991 104.017 61.7628 104.017C62.1302 104.017 62.3821 103.894 62.5185 103.648C62.6586 103.398 62.7287 103.121 62.7287 102.818V102.205C62.7287 101.902 62.6624 101.625 62.5298 101.375C62.3973 101.121 62.1416 100.994 61.7628 100.994C61.4067 100.994 61.1548 101.121 61.0071 101.375C60.8594 101.625 60.7855 101.902 60.7855 102.205ZM53.3878 96.1591V95.5455C53.3878 95.0909 53.4844 94.6742 53.6776 94.2955C53.8707 93.9167 54.151 93.6136 54.5185 93.3864C54.8859 93.1553 55.331 93.0398 55.8537 93.0398C56.3878 93.0398 56.8366 93.1553 57.2003 93.3864C57.5677 93.6136 57.8442 93.9167 58.0298 94.2955C58.2154 94.6742 58.3082 95.0909 58.3082 95.5455V96.1591C58.3082 96.6136 58.2135 97.0303 58.0241 97.4091C57.8385 97.7841 57.562 98.0852 57.1946 98.3125C56.8272 98.5398 56.3802 98.6534 55.8537 98.6534C55.3196 98.6534 54.8688 98.5398 54.5014 98.3125C54.1378 98.0852 53.8613 97.7822 53.6719 97.4034C53.4825 97.0246 53.3878 96.6098 53.3878 96.1591ZM54.8821 95.5455V96.1591C54.8821 96.4621 54.9522 96.7386 55.0923 96.9886C55.2363 97.2348 55.4901 97.358 55.8537 97.358C56.2173 97.358 56.4673 97.2348 56.6037 96.9886C56.7438 96.7386 56.8139 96.4621 56.8139 96.1591V95.5455C56.8139 95.2424 56.7476 94.9659 56.6151 94.7159C56.4825 94.4621 56.2287 94.3352 55.8537 94.3352C55.4938 94.3352 55.242 94.4621 55.098 94.7159C54.9541 94.9697 54.8821 95.2462 54.8821 95.5455ZM54.0355 105L62.0355 93.3636H63.456L55.456 105H54.0355Z" fill="#646464"/>
<path d="M31.8239 169.841V168.165L36.7614 160.364H38.1591V162.75H37.3068L33.983 168.017V168.108H40.875V169.841H31.8239ZM37.375 172V169.33L37.3977 168.58V160.364H39.3864V172H37.375ZM46.9915 172.222C46.0559 172.222 45.2528 171.985 44.5824 171.511C43.9157 171.034 43.4025 170.347 43.0426 169.449C42.6866 168.547 42.5085 167.462 42.5085 166.193C42.5123 164.924 42.6922 163.845 43.0483 162.955C43.4081 162.061 43.9214 161.379 44.5881 160.909C45.2585 160.439 46.0597 160.205 46.9915 160.205C47.9233 160.205 48.7244 160.439 49.3949 160.909C50.0653 161.379 50.5786 162.061 50.9347 162.955C51.2945 163.848 51.4744 164.928 51.4744 166.193C51.4744 167.466 51.2945 168.553 50.9347 169.455C50.5786 170.352 50.0653 171.038 49.3949 171.511C48.7282 171.985 47.9271 172.222 46.9915 172.222ZM46.9915 170.443C47.7188 170.443 48.2926 170.085 48.7131 169.369C49.1373 168.65 49.3494 167.591 49.3494 166.193C49.3494 165.269 49.2528 164.492 49.0597 163.864C48.8665 163.235 48.5938 162.761 48.2415 162.443C47.8892 162.121 47.4725 161.96 46.9915 161.96C46.268 161.96 45.696 162.32 45.2756 163.04C44.8551 163.756 44.643 164.807 44.6392 166.193C44.6354 167.121 44.7282 167.902 44.9176 168.534C45.1108 169.167 45.3835 169.644 45.7358 169.966C46.0881 170.284 46.5066 170.443 46.9915 170.443ZM59.5838 169.818V169.205C59.5838 168.754 59.6785 168.339 59.8679 167.96C60.0611 167.581 60.3414 167.277 60.7088 167.045C61.0762 166.814 61.5213 166.699 62.044 166.699C62.5819 166.699 63.0327 166.814 63.3963 167.045C63.7599 167.273 64.0346 167.576 64.2202 167.955C64.4096 168.333 64.5043 168.75 64.5043 169.205V169.818C64.5043 170.269 64.4096 170.684 64.2202 171.062C64.0308 171.441 63.7524 171.746 63.3849 171.977C63.0213 172.208 62.5743 172.324 62.044 172.324C61.5137 172.324 61.0649 172.208 60.6974 171.977C60.33 171.746 60.0516 171.441 59.8622 171.062C59.6766 170.684 59.5838 170.269 59.5838 169.818ZM61.0668 169.205V169.818C61.0668 170.117 61.1387 170.392 61.2827 170.642C61.4266 170.892 61.6804 171.017 62.044 171.017C62.4115 171.017 62.6634 170.894 62.7997 170.648C62.9399 170.398 63.0099 170.121 63.0099 169.818V169.205C63.0099 168.902 62.9437 168.625 62.8111 168.375C62.6785 168.121 62.4228 167.994 62.044 167.994C61.688 167.994 61.4361 168.121 61.2884 168.375C61.1406 168.625 61.0668 168.902 61.0668 169.205ZM53.669 163.159V162.545C53.669 162.091 53.7656 161.674 53.9588 161.295C54.152 160.917 54.4323 160.614 54.7997 160.386C55.1671 160.155 55.6122 160.04 56.1349 160.04C56.669 160.04 57.1179 160.155 57.4815 160.386C57.849 160.614 58.1255 160.917 58.3111 161.295C58.4967 161.674 58.5895 162.091 58.5895 162.545V163.159C58.5895 163.614 58.4948 164.03 58.3054 164.409C58.1198 164.784 57.8433 165.085 57.4759 165.312C57.1084 165.54 56.6615 165.653 56.1349 165.653C55.6009 165.653 55.1501 165.54 54.7827 165.312C54.419 165.085 54.1425 164.782 53.9531 164.403C53.7637 164.025 53.669 163.61 53.669 163.159ZM55.1634 162.545V163.159C55.1634 163.462 55.2334 163.739 55.3736 163.989C55.5175 164.235 55.7713 164.358 56.1349 164.358C56.4986 164.358 56.7486 164.235 56.8849 163.989C57.0251 163.739 57.0952 163.462 57.0952 163.159V162.545C57.0952 162.242 57.0289 161.966 56.8963 161.716C56.7637 161.462 56.5099 161.335 56.1349 161.335C55.7751 161.335 55.5232 161.462 55.3793 161.716C55.2353 161.97 55.1634 162.246 55.1634 162.545ZM54.3168 172L62.3168 160.364H63.7372L55.7372 172H54.3168Z" fill="#646464"/>
<path d="M32.0341 239V237.477L36.0739 233.517C36.4602 233.127 36.7822 232.78 37.0398 232.477C37.2973 232.174 37.4905 231.881 37.6193 231.597C37.7481 231.312 37.8125 231.009 37.8125 230.688C37.8125 230.32 37.7292 230.006 37.5625 229.744C37.3958 229.479 37.1667 229.275 36.875 229.131C36.5833 228.987 36.2519 228.915 35.8807 228.915C35.4981 228.915 35.1629 228.994 34.875 229.153C34.5871 229.309 34.3636 229.53 34.2045 229.818C34.0492 230.106 33.9716 230.449 33.9716 230.847H31.9659C31.9659 230.108 32.1345 229.466 32.4716 228.92C32.8087 228.375 33.2727 227.953 33.8636 227.653C34.4583 227.354 35.1402 227.205 35.9091 227.205C36.6894 227.205 37.375 227.35 37.9659 227.642C38.5568 227.934 39.0152 228.333 39.3409 228.841C39.6705 229.348 39.8352 229.928 39.8352 230.58C39.8352 231.015 39.7519 231.443 39.5852 231.864C39.4186 232.284 39.125 232.75 38.7045 233.261C38.2879 233.773 37.7027 234.392 36.9489 235.119L34.9432 237.159V237.239H40.0114V239H32.0341ZM46.2727 239.222C45.3371 239.222 44.5341 238.985 43.8636 238.511C43.197 238.034 42.6837 237.347 42.3239 236.449C41.9678 235.547 41.7898 234.462 41.7898 233.193C41.7936 231.924 41.9735 230.845 42.3295 229.955C42.6894 229.061 43.2027 228.379 43.8693 227.909C44.5398 227.439 45.3409 227.205 46.2727 227.205C47.2045 227.205 48.0057 227.439 48.6761 227.909C49.3466 228.379 49.8598 229.061 50.2159 229.955C50.5758 230.848 50.7557 231.928 50.7557 233.193C50.7557 234.466 50.5758 235.553 50.2159 236.455C49.8598 237.352 49.3466 238.038 48.6761 238.511C48.0095 238.985 47.2083 239.222 46.2727 239.222ZM46.2727 237.443C47 237.443 47.5739 237.085 47.9943 236.369C48.4186 235.65 48.6307 234.591 48.6307 233.193C48.6307 232.269 48.5341 231.492 48.3409 230.864C48.1477 230.235 47.875 229.761 47.5227 229.443C47.1705 229.121 46.7538 228.96 46.2727 228.96C45.5492 228.96 44.9773 229.32 44.5568 230.04C44.1364 230.756 43.9242 231.807 43.9205 233.193C43.9167 234.121 44.0095 234.902 44.1989 235.534C44.392 236.167 44.6648 236.644 45.017 236.966C45.3693 237.284 45.7879 237.443 46.2727 237.443ZM58.8651 236.818V236.205C58.8651 235.754 58.9598 235.339 59.1491 234.96C59.3423 234.581 59.6226 234.277 59.9901 234.045C60.3575 233.814 60.8026 233.699 61.3253 233.699C61.8632 233.699 62.3139 233.814 62.6776 234.045C63.0412 234.273 63.3158 234.576 63.5014 234.955C63.6908 235.333 63.7855 235.75 63.7855 236.205V236.818C63.7855 237.269 63.6908 237.684 63.5014 238.062C63.312 238.441 63.0336 238.746 62.6662 238.977C62.3026 239.208 61.8556 239.324 61.3253 239.324C60.795 239.324 60.3461 239.208 59.9787 238.977C59.6113 238.746 59.3329 238.441 59.1435 238.062C58.9579 237.684 58.8651 237.269 58.8651 236.818ZM60.348 236.205V236.818C60.348 237.117 60.42 237.392 60.5639 237.642C60.7079 237.892 60.9616 238.017 61.3253 238.017C61.6927 238.017 61.9446 237.894 62.081 237.648C62.2211 237.398 62.2912 237.121 62.2912 236.818V236.205C62.2912 235.902 62.2249 235.625 62.0923 235.375C61.9598 235.121 61.7041 234.994 61.3253 234.994C60.9692 234.994 60.7173 235.121 60.5696 235.375C60.4219 235.625 60.348 235.902 60.348 236.205ZM52.9503 230.159V229.545C52.9503 229.091 53.0469 228.674 53.2401 228.295C53.4332 227.917 53.7135 227.614 54.081 227.386C54.4484 227.155 54.8935 227.04 55.4162 227.04C55.9503 227.04 56.3991 227.155 56.7628 227.386C57.1302 227.614 57.4067 227.917 57.5923 228.295C57.7779 228.674 57.8707 229.091 57.8707 229.545V230.159C57.8707 230.614 57.776 231.03 57.5866 231.409C57.401 231.784 57.1245 232.085 56.7571 232.312C56.3897 232.54 55.9427 232.653 55.4162 232.653C54.8821 232.653 54.4313 232.54 54.0639 232.312C53.7003 232.085 53.4238 231.782 53.2344 231.403C53.045 231.025 52.9503 230.61 52.9503 230.159ZM54.4446 229.545V230.159C54.4446 230.462 54.5147 230.739 54.6548 230.989C54.7988 231.235 55.0526 231.358 55.4162 231.358C55.7798 231.358 56.0298 231.235 56.1662 230.989C56.3063 230.739 56.3764 230.462 56.3764 230.159V229.545C56.3764 229.242 56.3101 228.966 56.1776 228.716C56.045 228.462 55.7912 228.335 55.4162 228.335C55.0563 228.335 54.8045 228.462 54.6605 228.716C54.5166 228.97 54.4446 229.246 54.4446 229.545ZM53.598 239L61.598 227.364H63.0185L55.0185 239H53.598Z" fill="#646464"/>
<path d="M46.3352 306.222C45.3996 306.222 44.5966 305.985 43.9261 305.511C43.2595 305.034 42.7462 304.347 42.3864 303.449C42.0303 302.547 41.8523 301.462 41.8523 300.193C41.8561 298.924 42.036 297.845 42.392 296.955C42.7519 296.061 43.2652 295.379 43.9318 294.909C44.6023 294.439 45.4034 294.205 46.3352 294.205C47.267 294.205 48.0682 294.439 48.7386 294.909C49.4091 295.379 49.9223 296.061 50.2784 296.955C50.6383 297.848 50.8182 298.928 50.8182 300.193C50.8182 301.466 50.6383 302.553 50.2784 303.455C49.9223 304.352 49.4091 305.038 48.7386 305.511C48.072 305.985 47.2708 306.222 46.3352 306.222ZM46.3352 304.443C47.0625 304.443 47.6364 304.085 48.0568 303.369C48.4811 302.65 48.6932 301.591 48.6932 300.193C48.6932 299.269 48.5966 298.492 48.4034 297.864C48.2102 297.235 47.9375 296.761 47.5852 296.443C47.233 296.121 46.8163 295.96 46.3352 295.96C45.6117 295.96 45.0398 296.32 44.6193 297.04C44.1989 297.756 43.9867 298.807 43.983 300.193C43.9792 301.121 44.072 301.902 44.2614 302.534C44.4545 303.167 44.7273 303.644 45.0795 303.966C45.4318 304.284 45.8504 304.443 46.3352 304.443ZM58.9276 303.818V303.205C58.9276 302.754 59.0223 302.339 59.2116 301.96C59.4048 301.581 59.6851 301.277 60.0526 301.045C60.42 300.814 60.8651 300.699 61.3878 300.699C61.9257 300.699 62.3764 300.814 62.7401 301.045C63.1037 301.273 63.3783 301.576 63.5639 301.955C63.7533 302.333 63.848 302.75 63.848 303.205V303.818C63.848 304.269 63.7533 304.684 63.5639 305.062C63.3745 305.441 63.0961 305.746 62.7287 305.977C62.3651 306.208 61.9181 306.324 61.3878 306.324C60.8575 306.324 60.4086 306.208 60.0412 305.977C59.6738 305.746 59.3954 305.441 59.206 305.062C59.0204 304.684 58.9276 304.269 58.9276 303.818ZM60.4105 303.205V303.818C60.4105 304.117 60.4825 304.392 60.6264 304.642C60.7704 304.892 61.0241 305.017 61.3878 305.017C61.7552 305.017 62.0071 304.894 62.1435 304.648C62.2836 304.398 62.3537 304.121 62.3537 303.818V303.205C62.3537 302.902 62.2874 302.625 62.1548 302.375C62.0223 302.121 61.7666 301.994 61.3878 301.994C61.0317 301.994 60.7798 302.121 60.6321 302.375C60.4844 302.625 60.4105 302.902 60.4105 303.205ZM53.0128 297.159V296.545C53.0128 296.091 53.1094 295.674 53.3026 295.295C53.4957 294.917 53.776 294.614 54.1435 294.386C54.5109 294.155 54.956 294.04 55.4787 294.04C56.0128 294.04 56.4616 294.155 56.8253 294.386C57.1927 294.614 57.4692 294.917 57.6548 295.295C57.8404 295.674 57.9332 296.091 57.9332 296.545V297.159C57.9332 297.614 57.8385 298.03 57.6491 298.409C57.4635 298.784 57.187 299.085 56.8196 299.312C56.4522 299.54 56.0052 299.653 55.4787 299.653C54.9446 299.653 54.4938 299.54 54.1264 299.312C53.7628 299.085 53.4863 298.782 53.2969 298.403C53.1075 298.025 53.0128 297.61 53.0128 297.159ZM54.5071 296.545V297.159C54.5071 297.462 54.5772 297.739 54.7173 297.989C54.8613 298.235 55.1151 298.358 55.4787 298.358C55.8423 298.358 56.0923 298.235 56.2287 297.989C56.3688 297.739 56.4389 297.462 56.4389 297.159V296.545C56.4389 296.242 56.3726 295.966 56.2401 295.716C56.1075 295.462 55.8537 295.335 55.4787 295.335C55.1188 295.335 54.867 295.462 54.723 295.716C54.5791 295.97 54.5071 296.246 54.5071 296.545ZM53.6605 306L61.6605 294.364H63.081L55.081 306H53.6605Z" fill="#646464"/>
<path d="M243.034 306V304.477L247.074 300.517C247.46 300.127 247.782 299.78 248.04 299.477C248.297 299.174 248.491 298.881 248.619 298.597C248.748 298.312 248.812 298.009 248.812 297.688C248.812 297.32 248.729 297.006 248.562 296.744C248.396 296.479 248.167 296.275 247.875 296.131C247.583 295.987 247.252 295.915 246.881 295.915C246.498 295.915 246.163 295.994 245.875 296.153C245.587 296.309 245.364 296.53 245.205 296.818C245.049 297.106 244.972 297.449 244.972 297.847H242.966C242.966 297.108 243.134 296.466 243.472 295.92C243.809 295.375 244.273 294.953 244.864 294.653C245.458 294.354 246.14 294.205 246.909 294.205C247.689 294.205 248.375 294.35 248.966 294.642C249.557 294.934 250.015 295.333 250.341 295.841C250.67 296.348 250.835 296.928 250.835 297.58C250.835 298.015 250.752 298.443 250.585 298.864C250.419 299.284 250.125 299.75 249.705 300.261C249.288 300.773 248.703 301.392 247.949 302.119L245.943 304.159V304.239H251.011V306H243.034ZM257.017 306.159C256.259 306.159 255.581 306.017 254.983 305.733C254.384 305.445 253.909 305.051 253.557 304.551C253.208 304.051 253.023 303.479 253 302.835H255.045C255.083 303.312 255.29 303.703 255.665 304.006C256.04 304.305 256.491 304.455 257.017 304.455C257.43 304.455 257.797 304.36 258.119 304.17C258.441 303.981 258.695 303.718 258.881 303.381C259.066 303.044 259.157 302.659 259.153 302.227C259.157 301.788 259.064 301.398 258.875 301.057C258.686 300.716 258.426 300.449 258.097 300.256C257.767 300.059 257.388 299.96 256.96 299.96C256.612 299.956 256.269 300.021 255.932 300.153C255.595 300.286 255.328 300.46 255.131 300.676L253.227 300.364L253.835 294.364H260.585V296.125H255.58L255.244 299.21H255.312C255.528 298.956 255.833 298.746 256.227 298.58C256.621 298.409 257.053 298.324 257.523 298.324C258.227 298.324 258.856 298.491 259.409 298.824C259.962 299.153 260.398 299.608 260.716 300.188C261.034 300.767 261.193 301.43 261.193 302.176C261.193 302.945 261.015 303.631 260.659 304.233C260.307 304.831 259.816 305.303 259.188 305.648C258.562 305.989 257.839 306.159 257.017 306.159ZM268.409 299.335V301.028H263.17V299.335H268.409ZM274.616 306.159C273.798 306.159 273.071 306.019 272.435 305.739C271.802 305.458 271.302 305.068 270.935 304.568C270.567 304.068 270.372 303.491 270.349 302.835H272.486C272.505 303.15 272.609 303.424 272.798 303.659C272.988 303.89 273.24 304.07 273.554 304.199C273.868 304.328 274.221 304.392 274.611 304.392C275.027 304.392 275.397 304.32 275.719 304.176C276.041 304.028 276.293 303.824 276.474 303.562C276.656 303.301 276.745 303 276.741 302.659C276.745 302.307 276.654 301.996 276.469 301.727C276.283 301.458 276.014 301.248 275.662 301.097C275.313 300.945 274.893 300.869 274.401 300.869H273.372V299.244H274.401C274.806 299.244 275.16 299.174 275.463 299.034C275.77 298.894 276.01 298.697 276.185 298.443C276.359 298.186 276.444 297.888 276.44 297.551C276.444 297.222 276.37 296.936 276.219 296.693C276.071 296.447 275.861 296.256 275.588 296.119C275.319 295.983 275.003 295.915 274.639 295.915C274.283 295.915 273.954 295.979 273.651 296.108C273.348 296.237 273.103 296.42 272.918 296.659C272.732 296.894 272.634 297.174 272.622 297.5H270.594C270.609 296.848 270.796 296.277 271.156 295.784C271.52 295.288 272.005 294.902 272.611 294.625C273.217 294.345 273.897 294.205 274.651 294.205C275.427 294.205 276.101 294.35 276.673 294.642C277.249 294.93 277.694 295.318 278.009 295.807C278.323 296.295 278.48 296.835 278.48 297.426C278.484 298.081 278.291 298.631 277.901 299.074C277.514 299.517 277.007 299.807 276.378 299.943V300.034C277.196 300.148 277.823 300.451 278.259 300.943C278.698 301.432 278.916 302.04 278.912 302.767C278.912 303.419 278.726 304.002 278.355 304.517C277.988 305.028 277.48 305.43 276.832 305.722C276.188 306.013 275.45 306.159 274.616 306.159ZM280.652 303.841V302.165L285.589 294.364H286.987V296.75H286.135L282.811 302.017V302.108H289.703V303.841H280.652ZM286.203 306V303.33L286.226 302.58V294.364H288.214V306H286.203Z" fill="#646464"/>
<path d="M242 169.8C242 165.32 242 163.079 242.872 161.368C243.639 159.863 244.863 158.639 246.368 157.872C248.079 157 250.32 157 254.8 157H277.2C281.68 157 283.921 157 285.632 157.872C287.137 158.639 288.361 159.863 289.128 161.368C290 163.079 290 165.32 290 169.8V276.6C290 278.84 290 279.96 289.564 280.816C289.181 281.569 288.569 282.181 287.816 282.564C286.96 283 285.84 283 283.6 283H248.4C246.16 283 245.04 283 244.184 282.564C243.431 282.181 242.819 281.569 242.436 280.816C242 279.96 242 278.84 242 276.6V169.8Z" fill="#332885"/>
<path d="M136.767 294.364V306H134.659V296.415H134.591L131.869 298.153V296.222L134.761 294.364H136.767ZM143.858 306.159C143.013 306.159 142.263 306.017 141.608 305.733C140.956 305.449 140.445 305.061 140.074 304.568C139.706 304.072 139.525 303.509 139.528 302.881C139.525 302.392 139.631 301.943 139.847 301.534C140.063 301.125 140.354 300.784 140.722 300.511C141.093 300.235 141.506 300.059 141.96 299.983V299.903C141.362 299.771 140.877 299.466 140.506 298.989C140.138 298.508 139.956 297.953 139.96 297.324C139.956 296.725 140.123 296.191 140.46 295.722C140.797 295.252 141.259 294.883 141.847 294.614C142.434 294.341 143.104 294.205 143.858 294.205C144.604 294.205 145.269 294.341 145.852 294.614C146.439 294.883 146.902 295.252 147.239 295.722C147.58 296.191 147.75 296.725 147.75 297.324C147.75 297.953 147.562 298.508 147.188 298.989C146.816 299.466 146.337 299.771 145.75 299.903V299.983C146.205 300.059 146.614 300.235 146.977 300.511C147.345 300.784 147.636 301.125 147.852 301.534C148.072 301.943 148.182 302.392 148.182 302.881C148.182 303.509 147.996 304.072 147.625 304.568C147.254 305.061 146.742 305.449 146.091 305.733C145.443 306.017 144.699 306.159 143.858 306.159ZM143.858 304.534C144.294 304.534 144.672 304.46 144.994 304.312C145.316 304.161 145.566 303.949 145.744 303.676C145.922 303.403 146.013 303.089 146.017 302.733C146.013 302.362 145.917 302.034 145.727 301.75C145.542 301.462 145.286 301.237 144.96 301.074C144.638 300.911 144.271 300.83 143.858 300.83C143.441 300.83 143.07 300.911 142.744 301.074C142.419 301.237 142.161 301.462 141.972 301.75C141.786 302.034 141.695 302.362 141.699 302.733C141.695 303.089 141.782 303.403 141.96 303.676C142.138 303.945 142.388 304.155 142.71 304.307C143.036 304.458 143.419 304.534 143.858 304.534ZM143.858 299.233C144.214 299.233 144.528 299.161 144.801 299.017C145.078 298.873 145.295 298.672 145.455 298.415C145.614 298.157 145.695 297.86 145.699 297.523C145.695 297.189 145.616 296.898 145.46 296.648C145.305 296.394 145.089 296.199 144.812 296.062C144.536 295.922 144.218 295.852 143.858 295.852C143.491 295.852 143.167 295.922 142.886 296.062C142.61 296.199 142.394 296.394 142.239 296.648C142.087 296.898 142.013 297.189 142.017 297.523C142.013 297.86 142.089 298.157 142.244 298.415C142.403 298.669 142.621 298.869 142.898 299.017C143.178 299.161 143.498 299.233 143.858 299.233ZM155.362 299.335V301.028H150.124V299.335H155.362ZM157.097 306V304.477L161.136 300.517C161.523 300.127 161.845 299.78 162.102 299.477C162.36 299.174 162.553 298.881 162.682 298.597C162.811 298.312 162.875 298.009 162.875 297.688C162.875 297.32 162.792 297.006 162.625 296.744C162.458 296.479 162.229 296.275 161.938 296.131C161.646 295.987 161.314 295.915 160.943 295.915C160.561 295.915 160.225 295.994 159.938 296.153C159.65 296.309 159.426 296.53 159.267 296.818C159.112 297.106 159.034 297.449 159.034 297.847H157.028C157.028 297.108 157.197 296.466 157.534 295.92C157.871 295.375 158.335 294.953 158.926 294.653C159.521 294.354 160.203 294.205 160.972 294.205C161.752 294.205 162.438 294.35 163.028 294.642C163.619 294.934 164.078 295.333 164.403 295.841C164.733 296.348 164.898 296.928 164.898 297.58C164.898 298.015 164.814 298.443 164.648 298.864C164.481 299.284 164.188 299.75 163.767 300.261C163.35 300.773 162.765 301.392 162.011 302.119L160.006 304.159V304.239H165.074V306H157.097ZM166.574 303.841V302.165L171.511 294.364H172.909V296.75H172.057L168.733 302.017V302.108H175.625V303.841H166.574ZM172.125 306V303.33L172.148 302.58V294.364H174.136V306H172.125Z" fill="#646464"/>
<path d="M130 212.8C130 208.32 130 206.079 130.872 204.368C131.639 202.863 132.863 201.639 134.368 200.872C136.079 200 138.32 200 142.8 200H165.2C169.68 200 171.921 200 173.632 200.872C175.137 201.639 176.361 202.863 177.128 204.368C178 206.079 178 208.32 178 212.8V276.6C178 278.84 178 279.96 177.564 280.816C177.181 281.569 176.569 282.181 175.816 282.564C174.96 283 173.84 283 171.6 283H136.4C134.16 283 133.04 283 132.184 282.564C131.431 282.181 130.819 281.569 130.436 280.816C130 279.96 130 278.84 130 276.6V212.8Z" fill="#332885"/>
<path d="M360.21 306.159C359.392 306.159 358.665 306.019 358.028 305.739C357.396 305.458 356.896 305.068 356.528 304.568C356.161 304.068 355.966 303.491 355.943 302.835H358.08C358.098 303.15 358.203 303.424 358.392 303.659C358.581 303.89 358.833 304.07 359.148 304.199C359.462 304.328 359.814 304.392 360.205 304.392C360.621 304.392 360.991 304.32 361.312 304.176C361.634 304.028 361.886 303.824 362.068 303.562C362.25 303.301 362.339 303 362.335 302.659C362.339 302.307 362.248 301.996 362.062 301.727C361.877 301.458 361.608 301.248 361.256 301.097C360.907 300.945 360.487 300.869 359.994 300.869H358.966V299.244H359.994C360.4 299.244 360.754 299.174 361.057 299.034C361.364 298.894 361.604 298.697 361.778 298.443C361.953 298.186 362.038 297.888 362.034 297.551C362.038 297.222 361.964 296.936 361.812 296.693C361.665 296.447 361.455 296.256 361.182 296.119C360.913 295.983 360.597 295.915 360.233 295.915C359.877 295.915 359.547 295.979 359.244 296.108C358.941 296.237 358.697 296.42 358.511 296.659C358.326 296.894 358.227 297.174 358.216 297.5H356.188C356.203 296.848 356.39 296.277 356.75 295.784C357.114 295.288 357.598 294.902 358.205 294.625C358.811 294.345 359.491 294.205 360.244 294.205C361.021 294.205 361.695 294.35 362.267 294.642C362.843 294.93 363.288 295.318 363.602 295.807C363.917 296.295 364.074 296.835 364.074 297.426C364.078 298.081 363.884 298.631 363.494 299.074C363.108 299.517 362.6 299.807 361.972 299.943V300.034C362.79 300.148 363.417 300.451 363.852 300.943C364.292 301.432 364.509 302.04 364.506 302.767C364.506 303.419 364.32 304.002 363.949 304.517C363.581 305.028 363.074 305.43 362.426 305.722C361.782 306.013 361.044 306.159 360.21 306.159ZM370.501 306.159C369.744 306.159 369.066 306.017 368.467 305.733C367.869 305.445 367.393 305.051 367.041 304.551C366.693 304.051 366.507 303.479 366.484 302.835H368.53C368.568 303.312 368.774 303.703 369.149 304.006C369.524 304.305 369.975 304.455 370.501 304.455C370.914 304.455 371.282 304.36 371.604 304.17C371.926 303.981 372.179 303.718 372.365 303.381C372.551 303.044 372.642 302.659 372.638 302.227C372.642 301.788 372.549 301.398 372.359 301.057C372.17 300.716 371.911 300.449 371.581 300.256C371.251 300.059 370.873 299.96 370.445 299.96C370.096 299.956 369.753 300.021 369.416 300.153C369.079 300.286 368.812 300.46 368.615 300.676L366.712 300.364L367.32 294.364H374.07V296.125H369.064L368.729 299.21H368.797C369.013 298.956 369.318 298.746 369.712 298.58C370.106 298.409 370.537 298.324 371.007 298.324C371.712 298.324 372.34 298.491 372.893 298.824C373.446 299.153 373.882 299.608 374.2 300.188C374.518 300.767 374.678 301.43 374.678 302.176C374.678 302.945 374.5 303.631 374.143 304.233C373.791 304.831 373.301 305.303 372.672 305.648C372.047 305.989 371.323 306.159 370.501 306.159ZM381.893 299.335V301.028H376.655V299.335H381.893ZM383.824 303.841V302.165L388.761 294.364H390.159V296.75H389.307L385.983 302.017V302.108H392.875V303.841H383.824ZM389.375 306V303.33L389.398 302.58V294.364H391.386V306H389.375ZM394.48 303.841V302.165L399.418 294.364H400.815V296.75H399.963L396.639 302.017V302.108H403.531V303.841H394.48ZM400.031 306V303.33L400.054 302.58V294.364H402.043V306H400.031Z" fill="#646464"/>
<path d="M356 236.8C356 232.32 356 230.079 356.872 228.368C357.639 226.863 358.863 225.639 360.368 224.872C362.079 224 364.32 224 368.8 224H391.2C395.68 224 397.921 224 399.632 224.872C401.137 225.639 402.361 226.863 403.128 228.368C404 230.079 404 232.32 404 236.8V276.6C404 278.84 404 279.96 403.564 280.816C403.181 281.569 402.569 282.181 401.816 282.564C400.96 283 399.84 283 397.6 283H362.4C360.16 283 359.04 283 358.184 282.564C357.431 282.181 356.819 281.569 356.436 280.816C356 279.96 356 278.84 356 276.6V236.8Z" fill="#332885"/>
<path d="M477.824 303.841V302.165L482.761 294.364H484.159V296.75H483.307L479.983 302.017V302.108H486.875V303.841H477.824ZM483.375 306V303.33L483.398 302.58V294.364H485.386V306H483.375ZM492.736 306.159C491.978 306.159 491.3 306.017 490.702 305.733C490.103 305.445 489.628 305.051 489.276 304.551C488.927 304.051 488.741 303.479 488.719 302.835H490.764C490.802 303.312 491.009 303.703 491.384 304.006C491.759 304.305 492.209 304.455 492.736 304.455C493.149 304.455 493.516 304.36 493.838 304.17C494.16 303.981 494.414 303.718 494.599 303.381C494.785 303.044 494.876 302.659 494.872 302.227C494.876 301.788 494.783 301.398 494.594 301.057C494.404 300.716 494.145 300.449 493.815 300.256C493.486 300.059 493.107 299.96 492.679 299.96C492.33 299.956 491.988 300.021 491.651 300.153C491.313 300.286 491.046 300.46 490.849 300.676L488.946 300.364L489.554 294.364H496.304V296.125H491.298L490.963 299.21H491.031C491.247 298.956 491.552 298.746 491.946 298.58C492.34 298.409 492.772 298.324 493.241 298.324C493.946 298.324 494.575 298.491 495.128 298.824C495.681 299.153 496.116 299.608 496.435 300.188C496.753 300.767 496.912 301.43 496.912 302.176C496.912 302.945 496.734 303.631 496.378 304.233C496.026 304.831 495.535 305.303 494.906 305.648C494.281 305.989 493.558 306.159 492.736 306.159ZM502.27 304.136V296.273H504.054V304.136H502.27ZM499.23 301.097V299.312H507.094V301.097H499.23Z" fill="#646464"/>
<path d="M469 248.8C469 244.32 469 242.079 469.872 240.368C470.639 238.863 471.863 237.639 473.368 236.872C475.079 236 477.32 236 481.8 236H504.2C508.68 236 510.921 236 512.632 236.872C514.137 237.639 515.361 238.863 516.128 240.368C517 242.079 517 244.32 517 248.8V277.6C517 279.84 517 280.96 516.564 281.816C516.181 282.569 515.569 283.181 514.816 283.564C513.96 284 512.84 284 510.6 284H475.4C473.16 284 472.04 284 471.184 283.564C470.431 283.181 469.819 282.569 469.436 281.816C469 280.96 469 279.84 469 277.6V248.8Z" fill="#332885"/>
<mask id="mask1_509_2285" style="mask-type:alpha" maskUnits="userSpaceOnUse" x="493" y="30" width="24" height="24">
<rect x="493" y="30" width="24" height="24" fill="#D9D9D9"/>
</mask>
<g mask="url(#mask1_509_2285)">
<path d="M504 47H506V41H504V47ZM505 39C505.283 39 505.521 38.9042 505.713 38.7125C505.904 38.5208 506 38.2833 506 38C506 37.7167 505.904 37.4792 505.713 37.2875C505.521 37.0958 505.283 37 505 37C504.717 37 504.479 37.0958 504.288 37.2875C504.096 37.4792 504 37.7167 504 38C504 38.2833 504.096 38.5208 504.288 38.7125C504.479 38.9042 504.717 39 505 39ZM505 52C503.617 52 502.317 51.7375 501.1 51.2125C499.883 50.6875 498.825 49.975 497.925 49.075C497.025 48.175 496.312 47.1167 495.788 45.9C495.262 44.6833 495 43.3833 495 42C495 40.6167 495.262 39.3167 495.788 38.1C496.312 36.8833 497.025 35.825 497.925 34.925C498.825 34.025 499.883 33.3125 501.1 32.7875C502.317 32.2625 503.617 32 505 32C506.383 32 507.683 32.2625 508.9 32.7875C510.117 33.3125 511.175 34.025 512.075 34.925C512.975 35.825 513.688 36.8833 514.212 38.1C514.737 39.3167 515 40.6167 515 42C515 43.3833 514.737 44.6833 514.212 45.9C513.688 47.1167 512.975 48.175 512.075 49.075C511.175 49.975 510.117 50.6875 508.9 51.2125C507.683 51.7375 506.383 52 505 52ZM505 50C507.233 50 509.125 49.225 510.675 47.675C512.225 46.125 513 44.2333 513 42C513 39.7667 512.225 37.875 510.675 36.325C509.125 34.775 507.233 34 505 34C502.767 34 500.875 34.775 499.325 36.325C497.775 37.875 497 39.7667 497 42C497 44.2333 497.775 46.125 499.325 47.675C500.875 49.225 502.767 50 505 50Z" fill="#646464"/>
</g>
<line x1="31" y1="357.5" x2="517" y2="357.5" stroke="#646464" stroke-opacity="0.48"/>
<path d="M32.1477 459V447.364H39.6023V449.131H34.2557V452.29H39.0909V454.057H34.2557V459H32.1477ZM44.6548 459.17C43.7798 459.17 43.0241 458.989 42.3878 458.625C41.7552 458.258 41.2685 457.739 40.9276 457.068C40.5866 456.394 40.4162 455.6 40.4162 454.688C40.4162 453.79 40.5866 453.002 40.9276 452.324C41.2723 451.642 41.7533 451.112 42.3707 450.733C42.9882 450.35 43.7135 450.159 44.5469 450.159C45.0848 450.159 45.5923 450.246 46.0696 450.42C46.5507 450.591 46.9749 450.856 47.3423 451.216C47.7135 451.576 48.0052 452.034 48.2173 452.591C48.4295 453.144 48.5355 453.803 48.5355 454.568V455.199H41.3821V453.812H46.5639C46.5601 453.419 46.4749 453.068 46.3082 452.761C46.1416 452.451 45.9086 452.206 45.6094 452.028C45.3139 451.85 44.9692 451.761 44.5753 451.761C44.1548 451.761 43.7855 451.864 43.4673 452.068C43.1491 452.269 42.901 452.534 42.723 452.864C42.5488 453.189 42.4598 453.547 42.456 453.938V455.148C42.456 455.655 42.5488 456.091 42.7344 456.455C42.92 456.814 43.1795 457.091 43.5128 457.284C43.8461 457.473 44.2363 457.568 44.6832 457.568C44.9825 457.568 45.2533 457.527 45.4957 457.443C45.7382 457.356 45.9484 457.229 46.1264 457.062C46.3045 456.896 46.4389 456.689 46.5298 456.443L48.4503 456.659C48.3291 457.167 48.098 457.61 47.7571 457.989C47.42 458.364 46.9882 458.655 46.4616 458.864C45.9351 459.068 45.3329 459.17 44.6548 459.17ZM50.2756 459V450.273H52.2415V451.756H52.3438C52.5256 451.256 52.8267 450.866 53.2472 450.585C53.6676 450.301 54.1695 450.159 54.7528 450.159C55.3438 450.159 55.8419 450.303 56.2472 450.591C56.6563 450.875 56.9441 451.263 57.1108 451.756H57.2017C57.3949 451.271 57.7206 450.884 58.179 450.597C58.6411 450.305 59.1884 450.159 59.821 450.159C60.6241 450.159 61.2794 450.413 61.7869 450.92C62.2945 451.428 62.5483 452.169 62.5483 453.142V459H60.4858V453.46C60.4858 452.919 60.3419 452.523 60.054 452.273C59.7661 452.019 59.4138 451.892 58.9972 451.892C58.5009 451.892 58.1127 452.047 57.8324 452.358C57.5559 452.665 57.4176 453.064 57.4176 453.557V459H55.4006V453.375C55.4006 452.924 55.2642 452.564 54.9915 452.295C54.7225 452.027 54.3703 451.892 53.9347 451.892C53.6392 451.892 53.3703 451.968 53.1278 452.119C52.8854 452.267 52.6922 452.477 52.5483 452.75C52.4044 453.019 52.3324 453.333 52.3324 453.693V459H50.2756ZM67.1463 459.176C66.5933 459.176 66.0952 459.078 65.652 458.881C65.2126 458.68 64.8641 458.384 64.6065 457.994C64.3527 457.604 64.2259 457.123 64.2259 456.551C64.2259 456.059 64.3168 455.652 64.4986 455.33C64.6804 455.008 64.9285 454.75 65.2429 454.557C65.5573 454.364 65.9115 454.218 66.3054 454.119C66.7031 454.017 67.1141 453.943 67.5384 453.898C68.0497 453.845 68.4645 453.797 68.7827 453.756C69.1009 453.71 69.3319 453.642 69.4759 453.551C69.6236 453.456 69.6974 453.311 69.6974 453.114V453.08C69.6974 452.652 69.5705 452.32 69.3168 452.085C69.063 451.85 68.6974 451.733 68.2202 451.733C67.7164 451.733 67.3168 451.843 67.0213 452.062C66.7296 452.282 66.5327 452.542 66.4304 452.841L64.5099 452.568C64.6615 452.038 64.9115 451.595 65.2599 451.239C65.6084 450.879 66.0346 450.61 66.5384 450.432C67.0421 450.25 67.599 450.159 68.2088 450.159C68.6293 450.159 69.0478 450.208 69.4645 450.307C69.8812 450.405 70.2618 450.568 70.6065 450.795C70.9512 451.019 71.2277 451.324 71.4361 451.71C71.6482 452.097 71.7543 452.58 71.7543 453.159V459H69.777V457.801H69.7088C69.5838 458.044 69.4077 458.271 69.1804 458.483C68.9569 458.691 68.6747 458.86 68.3338 458.989C67.9967 459.114 67.6009 459.176 67.1463 459.176ZM67.6804 457.665C68.0933 457.665 68.4512 457.583 68.7543 457.42C69.0573 457.254 69.2902 457.034 69.4531 456.761C69.6198 456.489 69.7031 456.191 69.7031 455.869V454.841C69.6387 454.894 69.5289 454.943 69.3736 454.989C69.2221 455.034 69.0516 455.074 68.8622 455.108C68.6728 455.142 68.4853 455.172 68.2997 455.199C68.1141 455.225 67.9531 455.248 67.8168 455.267C67.5099 455.309 67.2353 455.377 66.9929 455.472C66.7505 455.566 66.5592 455.699 66.419 455.869C66.2789 456.036 66.2088 456.252 66.2088 456.517C66.2088 456.896 66.3471 457.182 66.6236 457.375C66.9001 457.568 67.2524 457.665 67.6804 457.665ZM75.8793 447.364V459H73.8224V447.364H75.8793ZM81.858 459.17C80.983 459.17 80.2273 458.989 79.5909 458.625C78.9583 458.258 78.4716 457.739 78.1307 457.068C77.7898 456.394 77.6193 455.6 77.6193 454.688C77.6193 453.79 77.7898 453.002 78.1307 452.324C78.4754 451.642 78.9564 451.112 79.5739 450.733C80.1913 450.35 80.9167 450.159 81.75 450.159C82.2879 450.159 82.7955 450.246 83.2727 450.42C83.7538 450.591 84.178 450.856 84.5455 451.216C84.9167 451.576 85.2083 452.034 85.4205 452.591C85.6326 453.144 85.7386 453.803 85.7386 454.568V455.199H78.5852V453.812H83.767C83.7633 453.419 83.678 453.068 83.5114 452.761C83.3447 452.451 83.1117 452.206 82.8125 452.028C82.517 451.85 82.1723 451.761 81.7784 451.761C81.358 451.761 80.9886 451.864 80.6705 452.068C80.3523 452.269 80.1042 452.534 79.9261 452.864C79.7519 453.189 79.6629 453.547 79.6591 453.938V455.148C79.6591 455.655 79.7519 456.091 79.9375 456.455C80.1231 456.814 80.3826 457.091 80.7159 457.284C81.0492 457.473 81.4394 457.568 81.8864 457.568C82.1856 457.568 82.4564 457.527 82.6989 457.443C82.9413 457.356 83.1515 457.229 83.3295 457.062C83.5076 456.896 83.642 456.689 83.733 456.443L85.6534 456.659C85.5322 457.167 85.3011 457.61 84.9602 457.989C84.6231 458.364 84.1913 458.655 83.6648 458.864C83.1383 459.068 82.536 459.17 81.858 459.17Z" fill="#646464"/>
<rect x="111" y="442" width="406" height="24" rx="8" fill="#D9D9D9"/>
<rect x="111" y="442" width="162.4" height="24" rx="8" fill="#17C8C7"/>
<path d="M32.1477 398.364H34.7273L38.1818 406.795H38.3182L41.7727 398.364H44.3523V410H42.3295V402.006H42.2216L39.0057 409.966H37.4943L34.2784 401.989H34.1705V410H32.1477V398.364ZM49.0682 410.176C48.5152 410.176 48.017 410.078 47.5739 409.881C47.1345 409.68 46.786 409.384 46.5284 408.994C46.2746 408.604 46.1477 408.123 46.1477 407.551C46.1477 407.059 46.2386 406.652 46.4205 406.33C46.6023 406.008 46.8504 405.75 47.1648 405.557C47.4792 405.364 47.8333 405.218 48.2273 405.119C48.625 405.017 49.036 404.943 49.4602 404.898C49.9716 404.845 50.3864 404.797 50.7045 404.756C51.0227 404.71 51.2538 404.642 51.3977 404.551C51.5455 404.456 51.6193 404.311 51.6193 404.114V404.08C51.6193 403.652 51.4924 403.32 51.2386 403.085C50.9848 402.85 50.6193 402.733 50.142 402.733C49.6383 402.733 49.2386 402.843 48.9432 403.062C48.6515 403.282 48.4545 403.542 48.3523 403.841L46.4318 403.568C46.5833 403.038 46.8333 402.595 47.1818 402.239C47.5303 401.879 47.9564 401.61 48.4602 401.432C48.964 401.25 49.5208 401.159 50.1307 401.159C50.5511 401.159 50.9697 401.208 51.3864 401.307C51.803 401.405 52.1837 401.568 52.5284 401.795C52.8731 402.019 53.1496 402.324 53.358 402.71C53.5701 403.097 53.6761 403.58 53.6761 404.159V410H51.6989V408.801H51.6307C51.5057 409.044 51.3295 409.271 51.1023 409.483C50.8788 409.691 50.5966 409.86 50.2557 409.989C49.9186 410.114 49.5227 410.176 49.0682 410.176ZM49.6023 408.665C50.0152 408.665 50.3731 408.583 50.6761 408.42C50.9792 408.254 51.2121 408.034 51.375 407.761C51.5417 407.489 51.625 407.191 51.625 406.869V405.841C51.5606 405.894 51.4508 405.943 51.2955 405.989C51.1439 406.034 50.9735 406.074 50.7841 406.108C50.5947 406.142 50.4072 406.172 50.2216 406.199C50.036 406.225 49.875 406.248 49.7386 406.267C49.4318 406.309 49.1572 406.377 48.9148 406.472C48.6723 406.566 48.4811 406.699 48.3409 406.869C48.2008 407.036 48.1307 407.252 48.1307 407.517C48.1307 407.896 48.2689 408.182 48.5455 408.375C48.822 408.568 49.1742 408.665 49.6023 408.665ZM57.8011 398.364V410H55.7443V398.364H57.8011ZM63.7798 410.17C62.9048 410.17 62.1491 409.989 61.5128 409.625C60.8802 409.258 60.3935 408.739 60.0526 408.068C59.7116 407.394 59.5412 406.6 59.5412 405.688C59.5412 404.79 59.7116 404.002 60.0526 403.324C60.3973 402.642 60.8783 402.112 61.4957 401.733C62.1132 401.35 62.8385 401.159 63.6719 401.159C64.2098 401.159 64.7173 401.246 65.1946 401.42C65.6757 401.591 66.0999 401.856 66.4673 402.216C66.8385 402.576 67.1302 403.034 67.3423 403.591C67.5545 404.144 67.6605 404.803 67.6605 405.568V406.199H60.5071V404.812H65.6889C65.6851 404.419 65.5999 404.068 65.4332 403.761C65.2666 403.451 65.0336 403.206 64.7344 403.028C64.4389 402.85 64.0942 402.761 63.7003 402.761C63.2798 402.761 62.9105 402.864 62.5923 403.068C62.2741 403.269 62.026 403.534 61.848 403.864C61.6738 404.189 61.5848 404.547 61.581 404.938V406.148C61.581 406.655 61.6738 407.091 61.8594 407.455C62.045 407.814 62.3045 408.091 62.6378 408.284C62.9711 408.473 63.3613 408.568 63.8082 408.568C64.1075 408.568 64.3783 408.527 64.6207 408.443C64.8632 408.356 65.0734 408.229 65.2514 408.062C65.4295 407.896 65.5639 407.689 65.6548 407.443L67.5753 407.659C67.4541 408.167 67.223 408.61 66.8821 408.989C66.545 409.364 66.1132 409.655 65.5866 409.864C65.0601 410.068 64.4579 410.17 63.7798 410.17Z" fill="#646464"/>
<rect x="111" y="394" width="406" height="24" rx="8" fill="#D9D9D9"/>
<rect x="111" y="394" width="243.6" height="24" rx="8" fill="#FD0000" fill-opacity="0.72"/>
<defs>
<filter id="filter0_d_509_2285" x="0" y="0" width="548" height="511" filterUnits="userSpaceOnUse" color-interpolation-filters="sRGB">
<feFlood flood-opacity="0" result="BackgroundImageFix"/>
<feColorMatrix in="SourceAlpha" type="matrix" values="0 0 0 0 0 0 0 0 0 0 0 0 0 0 0 0 0 0 127 0" result="hardAlpha"/>
<feOffset dy="1"/>
<feGaussianBlur stdDeviation="3.5"/>
<feComposite in2="hardAlpha" operator="out"/>
<feColorMatrix type="matrix" values="0 0 0 0 0 0 0 0 0 0 0 0 0 0 0 0 0 0 0.12 0"/>
<feBlend mode="normal" in2="BackgroundImageFix" result="effect1_dropShadow_509_2285"/>
<feBlend mode="normal" in="SourceGraphic" in2="effect1_dropShadow_509_2285" result="shape"/>
</filter>
</defs>
</svg>
