<svg width="100" height="100" viewBox="0 0 100 100" fill="none" xmlns="http://www.w3.org/2000/svg">
<g filter="url(#filter0_d_553_2661)">
<rect x="14" y="13" width="72" height="72" rx="36" fill="white"/>
</g>
<mask id="mask0_553_2661" style="mask-type:alpha" maskUnits="userSpaceOnUse" x="32" y="31" width="36" height="36">
<rect x="32" y="31" width="36" height="36" fill="#D9D9D9"/>
</mask>
<g mask="url(#mask0_553_2661)">
<path d="M56.975 50.4999L48.5 42.0249L56.975 33.5499L65.45 42.0249L56.975 50.4999ZM36.5 47.4999V35.4999H48.5V47.4999H36.5ZM51.5 62.4999V50.4999H63.5V62.4999H51.5ZM36.5 62.4999V50.4999H48.5V62.4999H36.5ZM39.5 44.4999H45.5V38.4999H39.5V44.4999ZM57.0125 46.2999L61.25 42.0624L57.0125 37.8249L52.775 42.0624L57.0125 46.2999ZM54.5 59.4999H60.5V53.4999H54.5V59.4999ZM39.5 59.4999H45.5V53.4999H39.5V59.4999Z" fill="#332885"/>
</g>
<defs>
<filter id="filter0_d_553_2661" x="0" y="0" width="100" height="100" filterUnits="userSpaceOnUse" color-interpolation-filters="sRGB">
<feFlood flood-opacity="0" result="BackgroundImageFix"/>
<feColorMatrix in="SourceAlpha" type="matrix" values="0 0 0 0 0 0 0 0 0 0 0 0 0 0 0 0 0 0 127 0" result="hardAlpha"/>
<feOffset dy="1"/>
<feGaussianBlur stdDeviation="7"/>
<feComposite in2="hardAlpha" operator="out"/>
<feColorMatrix type="matrix" values="0 0 0 0 0 0 0 0 0 0 0 0 0 0 0 0 0 0 0.12 0"/>
<feBlend mode="normal" in2="BackgroundImageFix" result="effect1_dropShadow_553_2661"/>
<feBlend mode="normal" in="SourceGraphic" in2="effect1_dropShadow_553_2661" result="shape"/>
</filter>
</defs>
</svg>
